<svg xmlns="http://www.w3.org/2000/svg" viewBox="0 0 100 90">
  <!-- Left leg -->
  <polygon points="15,25 22,25 18,10 11,10" fill="#6B3F1E"/>
  <!-- Right leg -->
  <polygon points="78,25 85,25 89,10 82,10" fill="#6B3F1E"/>
  <!-- Board surface -->
  <path fill="#A0693A" d="M7,83 L93,83 L84,23 L16,23 Z"/>
  <!-- Wood grain lines -->
  <line x1="18" y1="23" x2="10" y2="83" stroke="#8A5A30" stroke-width="1.5" opacity="0.5"/>
  <line x1="34" y1="23" x2="28" y2="83" stroke="#8A5A30" stroke-width="1.5" opacity="0.5"/>
  <line x1="52" y1="23" x2="50" y2="83" stroke="#8A5A30" stroke-width="1.5" opacity="0.5"/>
  <line x1="70" y1="23" x2="72" y2="83" stroke="#8A5A30" stroke-width="1.5" opacity="0.5"/>
  <line x1="86" y1="23" x2="92" y2="83" stroke="#8A5A30" stroke-width="1.5" opacity="0.5"/>
  <!-- Hole -->
  <ellipse cx="50" cy="38" rx="13" ry="10" fill="#2C1508"/>
  <!-- Bean bag -->
  <rect x="14" y="57" width="22" height="15" rx="4" fill="#5A3010" transform="rotate(-9 25 64.5)"/>
  <!-- Board border -->
  <path fill="none" stroke="#6B3F1E" stroke-width="1.5" d="M7,83 L93,83 L84,23 L16,23 Z"/>
</svg>
